# xmcd
#
# Track frame offsets: 
#        150
#        11987
#        22475
#        36350
#        45810
#        53985
#        67490
#        78057
#        90040
#        102364
#        116546
#        129329
#        146459
#        158960
#        169621
#
# Disc length: 2413 seconds
#
# Revision: 1
# Processed by: cddbd v1.5.2PL0 Copyright (c) Steve Scherf et al.
# Submitted via: ExactAudioCopy v1.0b3
#
DISCID=c2096b0f
DTITLE=Johnny Cash - Greatest Hits
DYEAR=1995
DGENRE=Country
TTITLE0=I Walk The Line
TTITLE1=Big River
TTITLE2=Don't Take Your Guns To Town
TTITLE3=I Got Stripes
TTITLE4=Five Feet High And Rising
TTITLE5=Tennessee Flat-Top Box
TTITLE6=Bonanza
TTITLE7=Ring Of Fire
TTITLE8=Understand Your Man
TTITLE9=Orange Blossom Special
TTITLE10=The One OnThe Right Is On The Left
TTITLE11=Ghost Riders in the Sky
TTITLE12=Jackson with (June Carter)
TTITLE13=Daddy Sang Bass
TTITLE14=A Thing Called Love
EXTD=
EXTT0=
EXTT1=
EXTT2=
EXTT3=
EXTT4=
EXTT5=
EXTT6=
EXTT7=
EXTT8=
EXTT9=
EXTT10=
EXTT11=
EXTT12=
EXTT13=
EXTT14=
PLAYORDER=
